<?xml version="1.0" encoding="utf-8"?>
<!-- Generator: Adobe Illustrator 23.0.1, SVG Export Plug-In . SVG Version: 6.00 Build 0)  -->
<svg version="1.1" id="图层_1" xmlns="http://www.w3.org/2000/svg" xmlns:xlink="http://www.w3.org/1999/xlink" x="0px" y="0px"
	 viewBox="0 0 364.3 78.5" style="enable-background:new 0 0 364.3 78.5;" xml:space="preserve">
<style type="text/css">
	.st0{fill:#E70214;}
</style>
<path class="st0" d="M267.2,48c-5.4,0-10.6,0-16,0c0.7-4.3,1.4-8.4,2.1-12.6c11.6,0,23.2,0,34.9,0c-0.4,1.9-0.6,3.7-1,5.5
	c-2.1,8.6-5.8,16.5-11.8,23.1c-8.8,9.7-19.7,14.3-32.8,13.5c-6.4-0.4-12.6-1.9-17.8-5.8c-7.1-5.3-10.6-12.5-11-21.3
	c-0.1-3.7,0.5-7.4,1.2-11c3.4-16,12.9-26.9,28-33c8.7-3.5,17.7-4,26.8-1.7c4.6,1.1,8.7,3.3,12.3,6.3c0.1,0.1,0.3,0.2,0.5,0.4
	c-3.3,4.5-6.5,8.8-9.8,13.2c-0.5-0.4-0.9-0.7-1.2-1c-3.9-3.6-8.5-5.3-13.8-5.1c-7.4,0.3-13.8,2.8-19,8.1c-4.4,4.4-6.4,9.9-7.4,16
	c-0.5,3.2-0.4,6.3,0.6,9.4c1.7,5.4,5.4,8.8,10.9,10s10.8,0.5,15.7-2.4C263,56.7,265.7,53,267.2,48z"/>
<path class="st0" d="M53.4,44.9C39,48.9,25,52.8,10.8,56.7c0.5,2.5,1.6,4.6,2.9,6.6c2.5,3.7,6,5.6,10.3,6.3
	c7.8,1.3,14.6-0.7,19.9-6.8c1.1-1.2,1.9-2.7,2.8-4.1c0.4-0.6,0.6-0.7,1.3-0.5c1.8,0.7,3.6,1.3,5.5,1.9c0,0.2,0,0.4-0.1,0.6
	c-4.6,9.7-12.1,15.2-22.9,15.7C25,76.7,19.7,76,14.9,73.3c-8.2-4.6-12.7-11.5-13.1-21c-0.2-3.8,0.5-7.4,1.1-11
	C3.3,39,4.6,37.1,6,35.2c4.1-5.3,9.3-9.2,16-10.8c12.9-3.1,25,4,29.2,13.6C52,40.2,52.6,42.5,53.4,44.9z M44.7,41.6
	c-3.2-10.4-14-14.2-23.3-11C11.3,34.1,8.1,43.8,9.8,51.2C21.4,48,33,44.8,44.7,41.6z"/>
<polygon class="st0" points="61.9,75.3 75,1.4 104.1,51 150.9,1.4 137.9,75.4 120.6,75.4 125.8,45.5 99.4,77.5 84.6,45.9 79.3,75.3 
	"/>
<polygon class="st0" points="211.4,20.1 214.1,5.2 160.6,5.2 148.1,75.4 203.9,75.4 206.6,60.4 168.2,60.2 171.7,40.5 193.8,51 
	197.5,29.4 171.8,40 175.3,20.3 "/>
<path class="st0" d="M363.2,75.4l-30-74l-56.1,73.9h20.1c0.8-0.6,6.2-7.9,12.2-16.2L320.9,72l15.8-12.7l0,0c3.5,8.7,6.5,16,6.5,16
	L363.2,75.4L363.2,75.4z M312.1,55.3c7.6-10.6,15.2-21.3,15.2-21.3c1.2,4.4,4.5,13.1,7.7,21.3H312.1z"/>
</svg>
